<?xml version="1.0" encoding="UTF-8"?>
<svg width="217px" height="224px" viewBox="0 0 217 224" version="1.1" xmlns="http://www.w3.org/2000/svg" xmlns:xlink="http://www.w3.org/1999/xlink">
    <!-- Generator: Sketch 55.2 (78181) - https://sketchapp.com -->
    <title>Combined Shape</title>
    <desc>Created with Sketch.</desc>
    <defs>
        <linearGradient x1="18.7451482%" y1="90.7329063%" x2="89.8981821%" y2="79.2680093%" id="linearGradient-1">
            <stop stop-color="#FF6D42" offset="0%"></stop>
            <stop stop-color="#CD0086" offset="40.3489718%"></stop>
            <stop stop-color="#2648B2" offset="100%"></stop>
        </linearGradient>
    </defs>
    <g id="Page-1" stroke="none" stroke-width="1" fill="none" fill-rule="evenodd">
        <g id="0" transform="translate(-79.000000, -294.000000)" fill="url(#linearGradient-1)">
            <path d="M177.874974,517.505562 C144.729325,517.806761 111.69818,502.545312 92.4009138,470.943551 C73.1495195,439.41691 75.8787799,402.183367 92.7048696,372.80987 C109.564884,343.37715 140.578629,294 177.814496,294 C214.775644,294 246.027624,343.570221 263.264006,372.929216 C280.721672,402.665128 308.001913,452.288993 288.073547,483.009486 C268.298676,513.49336 210.92971,517.20519 177.874974,517.505562 L177.874974,517.505562 Z M177.644166,511.549669 C208.653263,511.266723 239.769188,496.48825 258.320263,467.935086 C277.015334,439.16029 274.12605,403.98111 257.748776,376.128536 C241.579093,348.629007 212.261186,328.271523 177.587431,328.271523 C142.655958,328.271523 113.561544,348.448164 97.7449353,376.016748 C81.9601521,403.529861 118.724952,415.564842 136.784946,445.094729 C154.887974,474.694978 146.549783,511.830193 177.644166,511.549669 L177.644166,511.549669 Z" id="Combined-Shape"></path>
        </g>
    </g>
</svg>